<svg width="60" height="75" viewBox="0 0 60 75" fill="none" xmlns="http://www.w3.org/2000/svg">
<mask id="path-1-inside-1_277_2590" fill="white">
<rect x="27.0757" y="46.4155" width="3.86798" height="28.4296" rx="0.5"/>
</mask>
<rect x="27.0757" y="46.4155" width="3.86798" height="28.4296" rx="0.5" fill="url(#paint0_linear_277_2590)" stroke="#0A0A0A" stroke-width="2" mask="url(#path-1-inside-1_277_2590)"/>
<path d="M27.0835 69.1101C26.0184 63.0747 19.6323 55.9188 6.7688 57.6318C7.88976 62.5938 13.9656 69.1101 27.0835 69.1101Z" fill="url(#paint1_linear_277_2590)" stroke="#0A0A0A"/>
<path d="M30.9468 65.2419C32.0118 59.2065 38.398 52.0506 51.2615 53.7637C50.1405 58.7256 44.0647 65.2419 30.9468 65.2419Z" fill="url(#paint2_linear_277_2590)" stroke="#0A0A0A"/>
<mask id="path-4-inside-2_277_2590" fill="white">
<path fill-rule="evenodd" clip-rule="evenodd" d="M44.0312 21.5531C43.8556 21.8571 43.6633 22.1455 43.4562 22.4178C45.1638 22.1933 46.956 22.5088 48.5628 23.4364C52.4421 25.6761 53.7712 30.6366 51.5315 34.5159C49.9405 37.2716 46.9766 38.7405 44.0026 38.5573C45.6484 41.0414 45.8583 44.3428 44.2672 47.0986C42.0275 50.9779 37.0671 52.3071 33.1878 50.0674C31.5724 49.1347 30.3992 47.7303 29.7417 46.1286C29.5967 46.4948 29.4231 46.855 29.2203 47.2063C26.9806 51.0856 22.0201 52.4147 18.1408 50.175C14.2615 47.9353 12.9323 42.9749 15.1721 39.0955C15.3544 38.7797 15.5548 38.4807 15.7712 38.1992C14.1145 38.382 12.3868 38.0576 10.8326 37.1603C6.95331 34.9205 5.62416 29.9601 7.86389 26.0808C9.45492 23.325 12.4189 21.8562 15.393 22.0394C13.7475 19.5554 13.5376 16.2542 15.1286 13.4985C17.3683 9.61921 22.3288 8.29006 26.2081 10.5298C27.7548 11.4228 28.8961 12.7482 29.5675 14.2653C29.689 13.9866 29.8273 13.7118 29.9829 13.4423C32.2227 9.56302 37.1831 8.23387 41.0624 10.4736C44.9417 12.7133 46.2709 17.6738 44.0312 21.5531Z"/>
</mask>
<path fill-rule="evenodd" clip-rule="evenodd" d="M44.0312 21.5531C43.8556 21.8571 43.6633 22.1455 43.4562 22.4178C45.1638 22.1933 46.956 22.5088 48.5628 23.4364C52.4421 25.6761 53.7712 30.6366 51.5315 34.5159C49.9405 37.2716 46.9766 38.7405 44.0026 38.5573C45.6484 41.0414 45.8583 44.3428 44.2672 47.0986C42.0275 50.9779 37.0671 52.3071 33.1878 50.0674C31.5724 49.1347 30.3992 47.7303 29.7417 46.1286C29.5967 46.4948 29.4231 46.855 29.2203 47.2063C26.9806 51.0856 22.0201 52.4147 18.1408 50.175C14.2615 47.9353 12.9323 42.9749 15.1721 39.0955C15.3544 38.7797 15.5548 38.4807 15.7712 38.1992C14.1145 38.382 12.3868 38.0576 10.8326 37.1603C6.95331 34.9205 5.62416 29.9601 7.86389 26.0808C9.45492 23.325 12.4189 21.8562 15.393 22.0394C13.7475 19.5554 13.5376 16.2542 15.1286 13.4985C17.3683 9.61921 22.3288 8.29006 26.2081 10.5298C27.7548 11.4228 28.8961 12.7482 29.5675 14.2653C29.689 13.9866 29.8273 13.7118 29.9829 13.4423C32.2227 9.56302 37.1831 8.23387 41.0624 10.4736C44.9417 12.7133 46.2709 17.6738 44.0312 21.5531Z" fill="url(#paint3_linear_277_2590)"/>
<path d="M43.4562 22.4178L42.6604 21.8122L41.2072 23.722L43.5865 23.4092L43.4562 22.4178ZM44.0026 38.5573L44.064 37.5592L42.0599 37.4358L43.1689 39.1097L44.0026 38.5573ZM29.7417 46.1286L30.6668 45.7489L29.7252 43.4548L28.812 45.7604L29.7417 46.1286ZM15.7712 38.1992L16.564 38.8087L17.9945 36.9478L15.6615 37.2053L15.7712 38.1992ZM15.393 22.0394L15.3315 23.0375L17.3355 23.1609L16.2267 21.4871L15.393 22.0394ZM29.5675 14.2653L28.653 14.67L29.5743 16.7518L30.4841 14.6649L29.5675 14.2653ZM44.252 23.0233C44.4847 22.7175 44.7004 22.3939 44.8972 22.0531L43.1651 21.0531C43.0108 21.3204 42.842 21.5736 42.6604 21.8122L44.252 23.0233ZM49.0628 22.5704C47.2588 21.5289 45.244 21.1742 43.3259 21.4263L43.5865 23.4092C45.0836 23.2125 46.6532 23.4886 48.0628 24.3024L49.0628 22.5704ZM52.3975 35.0159C54.9134 30.6583 53.4204 25.0863 49.0628 22.5704L48.0628 24.3024C51.4638 26.266 52.6291 30.6149 50.6655 34.0159L52.3975 35.0159ZM43.9411 39.5555C47.2791 39.761 50.6096 38.1126 52.3975 35.0159L50.6655 34.0159C49.2714 36.4306 46.6741 37.72 44.064 37.5592L43.9411 39.5555ZM45.1333 47.5986C46.9212 44.5018 46.6834 40.7931 44.8362 38.005L43.1689 39.1097C44.6133 41.2897 44.7954 44.1839 43.4012 46.5986L45.1333 47.5986ZM32.6878 50.9334C37.0454 53.4493 42.6174 51.9562 45.1333 47.5986L43.4012 46.5986C41.4376 49.9997 37.0888 51.1649 33.6878 49.2013L32.6878 50.9334ZM28.8166 46.5083C29.5551 48.3075 30.8741 49.8863 32.6878 50.9334L33.6878 49.2013C32.2706 48.3831 31.2432 47.1531 30.6668 45.7489L28.8166 46.5083ZM30.0863 47.7063C30.3136 47.3125 30.5085 46.9083 30.6714 46.4968L28.812 45.7604C28.6849 46.0813 28.5326 46.3974 28.3543 46.7063L30.0863 47.7063ZM17.6408 51.0411C21.9984 53.5569 27.5704 52.0639 30.0863 47.7063L28.3543 46.7063C26.3907 50.1073 22.0418 51.2726 18.6408 49.309L17.6408 51.0411ZM14.306 38.5955C11.7902 42.9531 13.2832 48.5252 17.6408 51.0411L18.6408 49.309C15.2398 47.3454 14.0745 42.9966 16.0381 39.5955L14.306 38.5955ZM14.9784 37.5898C14.7353 37.906 14.5104 38.2415 14.306 38.5955L16.0381 39.5955C16.1984 39.3178 16.3744 39.0554 16.564 38.8087L14.9784 37.5898ZM10.3326 38.0263C12.0774 39.0336 14.0197 39.3986 15.8809 39.1932L15.6615 37.2053C14.2093 37.3655 12.6962 37.0815 11.3326 36.2942L10.3326 38.0263ZM6.99786 25.5808C4.482 29.9384 5.97502 35.5104 10.3326 38.0263L11.3326 36.2942C7.93161 34.3307 6.76633 29.9818 8.72991 26.5808L6.99786 25.5808ZM15.4545 21.0412C12.1164 20.8356 8.78579 22.484 6.99786 25.5808L8.72991 26.5808C10.1241 24.1661 12.7214 22.8767 15.3315 23.0375L15.4545 21.0412ZM14.2626 12.9985C12.4747 16.0952 12.7124 19.8036 14.5593 22.5916L16.2267 21.4871C14.7825 19.3071 14.6006 16.4132 15.9946 13.9985L14.2626 12.9985ZM26.7081 9.66376C22.3505 7.14789 16.7785 8.64092 14.2626 12.9985L15.9946 13.9985C17.9582 10.5975 22.3071 9.43223 25.7081 11.3958L26.7081 9.66376ZM30.4819 13.8606C29.7277 12.1563 28.4444 10.6662 26.7081 9.66376L25.7081 11.3958C27.0652 12.1793 28.0645 13.3402 28.653 14.67L30.4819 13.8606ZM29.1169 12.9423C28.9425 13.2444 28.7872 13.5526 28.6508 13.8656L30.4841 14.6649C30.5907 14.4205 30.7121 14.1793 30.849 13.9423L29.1169 12.9423ZM41.5624 9.60757C37.2048 7.0917 31.6328 8.58473 29.1169 12.9423L30.849 13.9423C32.8125 10.5413 37.1614 9.37604 40.5624 11.3396L41.5624 9.60757ZM44.8972 22.0531C47.4131 17.6955 45.92 12.1234 41.5624 9.60757L40.5624 11.3396C43.9634 13.3032 45.1287 17.6521 43.1651 21.0531L44.8972 22.0531Z" fill="#0A0A0A" mask="url(#path-4-inside-2_277_2590)"/>
<circle cx="29.6281" cy="30.421" r="6.55282" transform="rotate(30 29.6281 30.421)" fill="#FFF26D" stroke="#0A0A0A"/>
<defs>
<linearGradient id="paint0_linear_277_2590" x1="29.0097" y1="46.4155" x2="29.0097" y2="74.8452" gradientUnits="userSpaceOnUse">
<stop stop-color="#FFEE03"/>
<stop offset="1" stop-color="#C5F987"/>
</linearGradient>
<linearGradient id="paint1_linear_277_2590" x1="15.4243" y1="55.8919" x2="18.4311" y2="70.8494" gradientUnits="userSpaceOnUse">
<stop stop-color="#FFEE03"/>
<stop offset="1" stop-color="#C5F987"/>
</linearGradient>
<linearGradient id="paint2_linear_277_2590" x1="42.606" y1="52.0237" x2="39.5992" y2="66.9812" gradientUnits="userSpaceOnUse">
<stop stop-color="#FFEE03"/>
<stop offset="1" stop-color="#C5F987"/>
</linearGradient>
<linearGradient id="paint3_linear_277_2590" x1="41.1234" y1="10.5088" x2="18.2018" y2="50.2102" gradientUnits="userSpaceOnUse">
<stop stop-color="#FFEE03"/>
<stop offset="1" stop-color="#C5F987"/>
</linearGradient>
</defs>
</svg>
