<svg width="60" height="75" viewBox="0 0 60 75" fill="none" xmlns="http://www.w3.org/2000/svg">
<mask id="path-1-inside-1_277_2383" fill="white">
<rect x="27.0757" y="46.4155" width="3.86798" height="28.4296" rx="0.5"/>
</mask>
<rect x="27.0757" y="46.4155" width="3.86798" height="28.4296" rx="0.5" fill="url(#paint0_linear_277_2383)" stroke="#0A0A0A" stroke-width="2" mask="url(#path-1-inside-1_277_2383)"/>
<path d="M27.0835 69.1101C26.0184 63.0747 19.6323 55.9188 6.7688 57.6318C7.88976 62.5938 13.9656 69.1101 27.0835 69.1101Z" fill="url(#paint1_linear_277_2383)" stroke="#0A0A0A"/>
<path d="M30.9468 65.2419C32.0118 59.2065 38.398 52.0506 51.2615 53.7637C50.1405 58.7256 44.0647 65.2419 30.9468 65.2419Z" fill="white" stroke="#0A0A0A" stroke-width="0.5" stroke-dasharray="1 1"/>
<mask id="path-4-inside-2_277_2383" fill="white">
<path fill-rule="evenodd" clip-rule="evenodd" d="M44.0312 21.5531C43.8556 21.8571 43.6633 22.1455 43.4562 22.4178C45.1638 22.1933 46.956 22.5088 48.5628 23.4364C52.4421 25.6761 53.7712 30.6366 51.5315 34.5159C49.9405 37.2716 46.9766 38.7405 44.0026 38.5573C45.6484 41.0414 45.8583 44.3428 44.2672 47.0986C42.0275 50.9779 37.0671 52.3071 33.1878 50.0674C31.5724 49.1347 30.3992 47.7303 29.7417 46.1286C29.5967 46.4948 29.4231 46.855 29.2203 47.2063C26.9806 51.0856 22.0201 52.4147 18.1408 50.175C14.2615 47.9353 12.9323 42.9749 15.1721 39.0955C15.3544 38.7797 15.5548 38.4807 15.7712 38.1992C14.1145 38.382 12.3868 38.0576 10.8326 37.1603C6.95331 34.9205 5.62416 29.9601 7.86389 26.0808C9.45492 23.325 12.4189 21.8562 15.393 22.0394C13.7475 19.5554 13.5376 16.2542 15.1286 13.4985C17.3683 9.61921 22.3288 8.29006 26.2081 10.5298C27.7548 11.4228 28.8961 12.7482 29.5675 14.2653C29.689 13.9866 29.8273 13.7118 29.9829 13.4423C32.2227 9.56302 37.1831 8.23387 41.0624 10.4736C44.9417 12.7133 46.2709 17.6738 44.0312 21.5531Z"/>
</mask>
<path fill-rule="evenodd" clip-rule="evenodd" d="M44.0312 21.5531C43.8556 21.8571 43.6633 22.1455 43.4562 22.4178C45.1638 22.1933 46.956 22.5088 48.5628 23.4364C52.4421 25.6761 53.7712 30.6366 51.5315 34.5159C49.9405 37.2716 46.9766 38.7405 44.0026 38.5573C45.6484 41.0414 45.8583 44.3428 44.2672 47.0986C42.0275 50.9779 37.0671 52.3071 33.1878 50.0674C31.5724 49.1347 30.3992 47.7303 29.7417 46.1286C29.5967 46.4948 29.4231 46.855 29.2203 47.2063C26.9806 51.0856 22.0201 52.4147 18.1408 50.175C14.2615 47.9353 12.9323 42.9749 15.1721 39.0955C15.3544 38.7797 15.5548 38.4807 15.7712 38.1992C14.1145 38.382 12.3868 38.0576 10.8326 37.1603C6.95331 34.9205 5.62416 29.9601 7.86389 26.0808C9.45492 23.325 12.4189 21.8562 15.393 22.0394C13.7475 19.5554 13.5376 16.2542 15.1286 13.4985C17.3683 9.61921 22.3288 8.29006 26.2081 10.5298C27.7548 11.4228 28.8961 12.7482 29.5675 14.2653C29.689 13.9866 29.8273 13.7118 29.9829 13.4423C32.2227 9.56302 37.1831 8.23387 41.0624 10.4736C44.9417 12.7133 46.2709 17.6738 44.0312 21.5531Z" fill="white"/>
<path d="M43.4562 22.4178L43.2572 22.2664L42.894 22.7438L43.4888 22.6656L43.4562 22.4178ZM44.0026 38.5573L44.0179 38.3078L43.5169 38.277L43.7941 38.6954L44.0026 38.5573ZM29.7417 46.1286L29.973 46.0337L29.7376 45.4601L29.5093 46.0365L29.7417 46.1286ZM15.7712 38.1992L15.9694 38.3516L16.327 37.8864L15.7438 37.9507L15.7712 38.1992ZM15.393 22.0394L15.3776 22.2889L15.8786 22.3197L15.6014 21.9013L15.393 22.0394ZM29.5675 14.2653L29.3388 14.3664L29.5692 14.8869L29.7966 14.3652L29.5675 14.2653ZM43.6552 22.5692C43.709 22.4983 43.762 22.4265 43.8139 22.3535L43.4065 22.0636C43.3577 22.1322 43.3079 22.1998 43.2572 22.2664L43.6552 22.5692ZM44.1102 21.9077C44.1571 21.8322 44.2029 21.7556 44.2477 21.6781L43.8147 21.4281C43.7725 21.5011 43.7294 21.5731 43.6853 21.6442L44.1102 21.9077ZM44.2477 21.6781C44.4326 21.3578 44.594 21.0302 44.7323 20.6973L44.2706 20.5054C44.1406 20.8184 43.9888 21.1265 43.8147 21.4281L44.2477 21.6781ZM45.2984 18.5891C45.3942 17.8594 45.3919 17.1255 45.2967 16.4063L44.801 16.4719C44.8905 17.1483 44.8927 17.8383 44.8026 18.5241L45.2984 18.5891ZM44.7318 14.2981C44.4546 13.6277 44.0896 12.9909 43.6418 12.4068L43.245 12.711C43.6659 13.26 44.0091 13.8586 44.2697 14.4891L44.7318 14.2981ZM42.0975 10.8641C41.8113 10.645 41.5078 10.442 41.1874 10.2571L40.9374 10.6901C41.239 10.8642 41.5245 11.0552 41.7936 11.2612L42.0975 10.8641ZM41.1874 10.2571C40.8671 10.0721 40.5395 9.91076 40.2067 9.77244L40.0148 10.2341C40.3277 10.3642 40.6359 10.516 40.9374 10.6901L41.1874 10.2571ZM38.0985 9.20636C37.3688 9.11059 36.6348 9.11289 35.9156 9.20809L35.9812 9.70377C36.6576 9.61423 37.3476 9.61211 38.0334 9.70211L38.0985 9.20636ZM33.8075 9.77297C33.137 10.0501 32.5002 10.4151 31.9162 10.8629L32.2204 11.2597C32.7693 10.8389 33.3679 10.4957 33.9985 10.235L33.8075 9.77297ZM30.3735 12.4072C30.1544 12.6935 29.9514 12.997 29.7664 13.3173L30.1994 13.5673C30.3735 13.2658 30.5645 12.9802 30.7705 12.7111L30.3735 12.4072ZM29.7664 13.3173C29.7267 13.3861 29.6881 13.4553 29.6505 13.5247L30.0904 13.7625C30.1257 13.6972 30.1621 13.6321 30.1994 13.5673L29.7664 13.3173ZM29.4363 13.9489C29.4026 14.0207 29.3699 14.0929 29.3383 14.1653L29.7966 14.3652C29.8263 14.2971 29.8571 14.2292 29.8888 14.1616L29.4363 13.9489ZM29.7961 14.1641C29.6191 13.7641 29.4104 13.377 29.171 13.007L28.7512 13.2785C28.9762 13.6264 29.1724 13.9903 29.3388 14.3664L29.7961 14.1641ZM27.4173 11.0573C27.0809 10.7854 26.7192 10.5362 26.3331 10.3133L26.0831 10.7463C26.4466 10.9561 26.7868 11.1905 27.103 11.4461L27.4173 11.0573ZM26.3331 10.3133C26.0128 10.1283 25.6852 9.96695 25.3524 9.82863L25.1605 10.2903C25.4734 10.4204 25.7816 10.5722 26.0831 10.7463L26.3331 10.3133ZM23.2442 9.26255C22.5144 9.16678 21.7805 9.16908 21.0613 9.26428L21.1269 9.75996C21.8033 9.67042 22.4933 9.66829 23.1791 9.7583L23.2442 9.26255ZM18.9531 9.82916C18.2827 10.1063 17.6459 10.4713 17.0619 10.9191L17.3661 11.3159C17.915 10.895 18.5136 10.5519 19.1442 10.2912L18.9531 9.82916ZM15.5191 12.4634C15.3001 12.7496 15.0971 13.0532 14.9121 13.3735L15.3451 13.6235C15.5192 13.322 15.7102 13.0364 15.9162 12.7673L15.5191 12.4634ZM14.9121 13.3735C14.7161 13.713 14.5465 14.0607 14.4029 14.4141L14.866 14.6024C15.0011 14.2702 15.1606 13.9431 15.3451 13.6235L14.9121 13.3735ZM13.8383 16.6562C13.755 17.4311 13.7817 18.2088 13.912 18.9668L14.4048 18.882C14.2822 18.1692 14.2572 17.4379 14.3354 16.7096L13.8383 16.6562ZM14.6133 21.1693C14.7796 21.5169 14.9703 21.8539 15.1846 22.1774L15.6014 21.9013C15.4 21.5972 15.2207 21.2804 15.0643 20.9535L14.6133 21.1693ZM15.4084 21.7898C15.021 21.766 14.6338 21.7693 14.2497 21.799L14.2883 22.2975C14.6495 22.2696 15.0135 22.2665 15.3776 22.2889L15.4084 21.7898ZM11.9914 22.293C11.2698 22.559 10.5829 22.9248 9.95347 23.3844L10.2483 23.7882C10.8399 23.3563 11.4857 23.0123 12.1644 22.7621L11.9914 22.293ZM8.29397 24.9944C8.05973 25.2956 7.8434 25.6163 7.64738 25.9558L8.08039 26.2058C8.26493 25.8862 8.46843 25.5845 8.68864 25.3014L8.29397 24.9944ZM7.64738 25.9558C7.46244 26.2761 7.30106 26.6037 7.16273 26.9365L7.62444 27.1284C7.75449 26.8155 7.90629 26.5073 8.08039 26.2058L7.64738 25.9558ZM6.59666 29.0447C6.50089 29.7744 6.50318 30.5084 6.59839 31.2276L7.09406 31.162C7.00452 30.4856 7.0024 29.7956 7.0924 29.1098L6.59666 29.0447ZM7.16326 33.3357C7.44041 34.0062 7.8054 34.643 8.2532 35.227L8.65 34.9228C8.22915 34.3739 7.88598 33.7753 7.62534 33.1447L7.16326 33.3357ZM9.79753 36.7697C10.0837 36.9888 10.3873 37.1918 10.7076 37.3768L10.9576 36.9438C10.6561 36.7697 10.3705 36.5787 10.1014 36.3727L9.79753 36.7697ZM10.7076 37.3768C11.0956 37.6008 11.4942 37.7902 11.8998 37.9459L12.079 37.4792C11.6977 37.3328 11.3228 37.1546 10.9576 36.9438L10.7076 37.3768ZM14.478 38.4885C14.9202 38.5099 15.3618 38.4959 15.7986 38.4477L15.7438 37.9507C15.333 37.9961 14.9178 38.0092 14.5021 37.9891L14.478 38.4885ZM15.573 38.0469C15.5167 38.1201 15.4614 38.1945 15.4073 38.2701L15.8136 38.5615C15.8645 38.4904 15.9165 38.4205 15.9694 38.3516L15.573 38.0469ZM15.0984 38.7322C15.0497 38.8106 15.002 38.89 14.9556 38.9705L15.3886 39.2205C15.4323 39.1447 15.4772 39.07 15.523 38.9962L15.0984 38.7322ZM14.9556 38.9705C14.7706 39.2909 14.6092 39.6185 14.4709 39.9513L14.9326 40.1432C15.0627 39.8303 15.2145 39.5221 15.3886 39.2205L14.9556 38.9705ZM13.9048 42.0595C13.8091 42.7892 13.8114 43.5232 13.9066 44.2424L14.4022 44.1767C14.3127 43.5004 14.3106 42.8103 14.4006 42.1245L13.9048 42.0595ZM14.4714 46.3505C14.7486 47.0209 15.1136 47.6577 15.5614 48.2418L15.9582 47.9376C15.5373 47.3887 15.1942 46.79 14.9335 46.1595L14.4714 46.3505ZM17.1057 49.7845C17.3919 50.0036 17.6955 50.2066 18.0158 50.3915L18.2658 49.9585C17.9643 49.7844 17.6787 49.5934 17.4096 49.3875L17.1057 49.7845ZM18.0158 50.3915C18.3361 50.5765 18.6637 50.7379 18.9965 50.8762L19.1884 50.4145C18.8755 50.2844 18.5673 50.1326 18.2658 49.9585L18.0158 50.3915ZM21.1047 51.4423C21.8345 51.538 22.5684 51.5357 23.2876 51.4405L23.222 50.9449C22.5456 51.0344 21.8556 51.0365 21.1698 50.9465L21.1047 51.4423ZM25.3958 50.8757C26.0662 50.5985 26.703 50.2335 27.2871 49.7857L26.9828 49.3889C26.4339 49.8098 25.8353 50.1529 25.2047 50.4136L25.3958 50.8757ZM28.8298 48.2414C29.0488 47.9552 29.2519 47.6516 29.4368 47.3313L29.0038 47.0813C28.8297 47.3828 28.6387 47.6684 28.4327 47.9375L28.8298 48.2414ZM29.4368 47.3313C29.4884 47.2418 29.5383 47.1518 29.5862 47.0613L29.1444 46.8271C29.0993 46.9123 29.0524 46.9971 29.0038 47.0813L29.4368 47.3313ZM29.8552 46.5056C29.8967 46.4111 29.9364 46.3161 29.9741 46.2207L29.5093 46.0365C29.4738 46.1262 29.4365 46.2155 29.3974 46.3044L29.8552 46.5056ZM29.5104 46.2235C29.6838 46.6458 29.8919 47.0547 30.1335 47.4457L30.5588 47.1829C30.3317 46.8153 30.136 46.4308 29.973 46.0337L29.5104 46.2235ZM31.9344 49.5039C32.2832 49.7899 32.6597 50.0512 33.0628 50.2839L33.3128 49.8509C32.9333 49.6318 32.5792 49.386 32.2514 49.1173L31.9344 49.5039ZM33.0628 50.2839C33.3831 50.4688 33.7107 50.6302 34.0435 50.7685L34.2354 50.3068C33.9225 50.1768 33.6143 50.025 33.3128 49.8509L33.0628 50.2839ZM36.1517 51.3346C36.8814 51.4304 37.6154 51.4281 38.3346 51.3329L38.269 50.8372C37.5926 50.9267 36.9026 50.9289 36.2168 50.8389L36.1517 51.3346ZM40.4427 50.768C41.1132 50.4909 41.7499 50.1259 42.334 49.6781L42.0298 49.2813C41.4809 49.7021 40.8822 50.0453 40.2517 50.3059L40.4427 50.768ZM43.8767 48.1337C44.0958 47.8475 44.2988 47.544 44.4838 47.2236L44.0507 46.9736C43.8766 47.2752 43.6857 47.5607 43.4797 47.8298L43.8767 48.1337ZM44.4838 47.2236C44.6798 46.8841 44.8493 46.5364 44.993 46.183L44.5299 45.9947C44.3948 46.3269 44.2353 46.654 44.0507 46.9736L44.4838 47.2236ZM45.5576 43.9407C45.6409 43.1658 45.6142 42.388 45.4838 41.63L44.991 41.7148C45.1137 42.4277 45.1387 43.159 45.0605 43.8873L45.5576 43.9407ZM44.7824 39.4274C44.6161 39.0798 44.4253 38.7428 44.211 38.4193L43.7941 38.6954C43.9957 38.9996 44.175 39.3164 44.3314 39.6432L44.7824 39.4274ZM43.9872 38.8069C44.3746 38.8307 44.7618 38.8274 45.1459 38.7976L45.1073 38.2991C44.7461 38.3271 44.382 38.3302 44.0179 38.3078L43.9872 38.8069ZM47.4041 38.3037C48.1256 38.0376 48.8125 37.6718 49.442 37.2123L49.1472 36.8084C48.5556 37.2403 47.9098 37.5843 47.2311 37.8346L47.4041 38.3037ZM51.1014 35.6023C51.3357 35.3011 51.552 34.9804 51.748 34.6409L51.315 34.3909C51.1305 34.7105 50.927 35.0122 50.7068 35.2953L51.1014 35.6023ZM51.748 34.6409C51.933 34.3206 52.0943 33.993 52.2327 33.6602L51.771 33.4683C51.6409 33.7812 51.4891 34.0894 51.315 34.3909L51.748 34.6409ZM52.7987 31.552C52.8945 30.8222 52.8922 30.0883 52.797 29.3691L52.3013 29.4347C52.3909 30.1111 52.393 30.8011 52.303 31.4869L52.7987 31.552ZM52.2321 27.2609C51.955 26.5905 51.59 25.9537 51.1422 25.3696L50.7454 25.6739C51.1662 26.2228 51.5094 26.8214 51.7701 27.452L52.2321 27.2609ZM49.5979 23.8269C49.3117 23.6079 49.0081 23.4049 48.6878 23.2199L48.4378 23.6529C48.7393 23.827 49.0249 24.018 49.294 24.224L49.5979 23.8269ZM48.6878 23.2199C48.2868 22.9884 47.8745 22.7939 47.4548 22.6352L47.278 23.1029C47.6725 23.252 48.0604 23.435 48.4378 23.6529L48.6878 23.2199ZM44.7867 22.1029C44.3297 22.088 43.8738 22.1107 43.4236 22.1699L43.4888 22.6656C43.9121 22.61 44.3408 22.5886 44.7704 22.6026L44.7867 22.1029ZM43.4562 22.4178L43.0583 22.115L42.3317 23.0699L43.5214 22.9135L43.4562 22.4178ZM44.0026 38.5573L44.0333 38.0583L43.0312 37.9966L43.5857 38.8335L44.0026 38.5573ZM29.7417 46.1286L30.2043 45.9387L29.7334 44.7917L29.2768 45.9445L29.7417 46.1286ZM15.7712 38.1992L16.1676 38.5039L16.8828 37.5735L15.7164 37.7022L15.7712 38.1992ZM15.393 22.0394L15.3623 22.5384L16.3642 22.6001L15.8098 21.7632L15.393 22.0394ZM29.5675 14.2653L29.1102 14.4676L29.5709 15.5085L30.0258 14.4651L29.5675 14.2653ZM43.8541 22.7205C43.9096 22.6476 43.9641 22.5736 44.0175 22.4985L43.2028 21.9187C43.1555 21.9851 43.1074 22.0505 43.0583 22.115L43.8541 22.7205ZM44.3227 22.0395C44.3709 21.9617 44.4181 21.8829 44.4642 21.8031L43.5982 21.3031C43.5573 21.3738 43.5155 21.4436 43.4728 21.5125L44.3227 22.0395ZM44.4642 21.8031C44.6545 21.4734 44.8207 21.1361 44.9632 20.7933L44.0398 20.4095C43.9138 20.7124 43.7668 21.0109 43.5982 21.3031L44.4642 21.8031ZM45.5463 18.6217C45.6449 17.87 45.6425 17.1141 45.5445 16.3735L44.5532 16.5047C44.6399 17.1597 44.6419 17.8277 44.5548 18.4915L45.5463 18.6217ZM44.9628 14.2026C44.6774 13.5122 44.3015 12.8564 43.8402 12.2547L43.0466 12.8632C43.454 13.3945 43.7863 13.9741 44.0387 14.5846L44.9628 14.2026ZM42.2495 10.6656C41.9547 10.44 41.6421 10.2309 41.3124 10.0406L40.8124 10.9066C41.1046 11.0753 41.3811 11.2603 41.6417 11.4597L42.2495 10.6656ZM41.3124 10.0406C40.9827 9.85022 40.6454 9.68405 40.3026 9.54158L39.9188 10.465C40.2218 10.5909 40.5203 10.7379 40.8124 10.9066L41.3124 10.0406ZM38.131 8.95849C37.3793 8.85984 36.6234 8.86222 35.8828 8.96026L36.014 9.95161C36.669 9.8649 37.3371 9.86286 38.0009 9.94999L38.131 8.95849ZM33.712 9.54193C33.0216 9.82733 32.3657 10.2032 31.7641 10.6645L32.3725 11.4581C32.9038 11.0507 33.4834 10.7185 34.094 10.4661L33.712 9.54193ZM30.1749 12.2553C29.9493 12.5501 29.7403 12.8626 29.5499 13.1923L30.416 13.6923C30.5846 13.4002 30.7696 13.1236 30.969 12.8631L30.1749 12.2553ZM29.5499 13.1923C29.509 13.2631 29.4693 13.3343 29.4306 13.4058L30.3103 13.8814C30.3445 13.8181 30.3797 13.7551 30.416 13.6923L29.5499 13.1923ZM29.2101 13.8425C29.1753 13.9165 29.1416 13.9908 29.1091 14.0654L30.0258 14.4651C30.0545 14.3991 30.0843 14.3334 30.1151 14.2679L29.2101 13.8425ZM30.0247 14.0629C29.8424 13.651 29.6275 13.2524 29.381 12.8712L28.5413 13.4143C28.7591 13.751 28.9491 14.1034 29.1102 14.4676L30.0247 14.0629ZM27.5745 10.8628C27.228 10.5828 26.8555 10.3262 26.4581 10.0968L25.9581 10.9628C26.3102 11.1661 26.6397 11.3931 26.9458 11.6405L27.5745 10.8628ZM26.4581 10.0968C26.1284 9.90641 25.7911 9.74024 25.4483 9.59777L25.0645 10.5212C25.3675 10.6471 25.6659 10.7941 25.9581 10.9628L26.4581 10.0968ZM23.2767 9.01468C22.525 8.91602 21.7691 8.9184 21.0285 9.01644L21.1597 10.0078C21.8147 9.92109 22.4827 9.91905 23.1466 10.0062L23.2767 9.01468ZM18.8576 9.59812C18.1672 9.88352 17.5114 10.2594 16.9097 10.7207L17.5182 11.5143C18.0495 11.1069 18.6291 10.7747 19.2397 10.5223L18.8576 9.59812ZM15.3206 12.3115C15.095 12.6062 14.886 12.9188 14.6956 13.2485L15.5616 13.7485C15.7303 13.4564 15.9153 13.1798 16.1147 12.9193L15.3206 12.3115ZM14.6956 13.2485C14.4938 13.598 14.3193 13.956 14.1713 14.32L15.0976 14.6966C15.2284 14.3749 15.3829 14.0582 15.5616 13.7485L14.6956 13.2485ZM13.5897 16.6295C13.504 17.4277 13.5314 18.2287 13.6656 19.0091L14.6512 18.8396C14.5324 18.1493 14.5082 17.4413 14.584 16.7363L13.5897 16.6295ZM14.3878 21.2772C14.559 21.6352 14.7554 21.9822 14.9762 22.3155L15.8098 21.7632C15.6148 21.4688 15.4412 21.1621 15.2898 20.8456L14.3878 21.2772ZM15.4237 21.5403C15.0247 21.5157 14.626 21.5192 14.2303 21.5498L14.3076 22.5468C14.6573 22.5197 15.0098 22.5167 15.3623 22.5384L15.4237 21.5403ZM11.905 22.0584C11.1619 22.3324 10.4544 22.7091 9.80606 23.1825L10.3957 23.9901C10.9684 23.572 11.5937 23.239 12.2509 22.9967L11.905 22.0584ZM8.09663 24.8409C7.85538 25.1511 7.63264 25.4813 7.43087 25.8308L8.2969 26.3308C8.47568 26.0211 8.67278 25.729 8.88598 25.4549L8.09663 24.8409ZM7.43087 25.8308C7.24051 26.1605 7.07434 26.4978 6.93187 26.8406L7.8553 27.2244C7.98121 26.9214 8.12822 26.6229 8.2969 26.3308L7.43087 25.8308ZM6.34878 29.0122C6.25013 29.7639 6.25251 30.5198 6.35055 31.2604L7.3419 31.1292C7.2552 30.4742 7.25315 29.8061 7.34028 29.1423L6.34878 29.0122ZM6.93222 33.4312C7.21762 34.1217 7.59353 34.7775 8.0548 35.3791L8.8484 34.7707C8.44103 34.2394 8.10877 33.6598 7.85637 33.0492L6.93222 33.4312ZM9.64558 36.9683C9.94035 37.1939 10.2529 37.4029 10.5826 37.5933L11.0826 36.7273C10.7905 36.5586 10.5139 36.3736 10.2534 36.1742L9.64558 36.9683ZM10.5826 37.5933C10.9819 37.8238 11.3924 38.0189 11.8102 38.1793L12.1687 37.2458C11.7995 37.104 11.4364 36.9315 11.0826 36.7273L10.5826 37.5933ZM14.4659 38.7383C14.9214 38.7603 15.3763 38.7458 15.8261 38.6962L15.7164 37.7022C15.3186 37.7461 14.9166 37.7589 14.5142 37.7394L14.4659 38.7383ZM15.3748 37.8945C15.3168 37.9699 15.2599 38.0466 15.2041 38.1244L16.0167 38.7072C16.0661 38.6384 16.1164 38.5706 16.1676 38.5039L15.3748 37.8945ZM14.8861 38.6002C14.8359 38.6809 14.7869 38.7627 14.739 38.8455L15.6051 39.3455C15.6475 39.2721 15.6909 39.1996 15.7353 39.1282L14.8861 38.6002ZM14.739 38.8455C14.5487 39.1753 14.3825 39.5126 14.24 39.8553L15.1635 40.2391C15.2894 39.9362 15.4364 39.6377 15.6051 39.3455L14.739 38.8455ZM13.657 42.0269C13.5583 42.7786 13.5607 43.5346 13.6587 44.2752L14.6501 44.1439C14.5634 43.489 14.5613 42.8209 14.6485 42.1571L13.657 42.0269ZM14.2404 46.446C14.5258 47.1364 14.9017 47.7923 15.363 48.3939L16.1566 47.7855C15.7492 47.2541 15.4169 46.6746 15.1645 46.064L14.2404 46.446ZM16.9538 49.983C17.2485 50.2087 17.5611 50.4177 17.8908 50.608L18.3908 49.742C18.0986 49.5733 17.8221 49.3884 17.5616 49.189L16.9538 49.983ZM17.8908 50.608C18.2205 50.7984 18.5578 50.9646 18.9006 51.107L19.2844 50.1836C18.9814 50.0577 18.683 49.9107 18.3908 49.742L17.8908 50.608ZM21.0722 51.6901C21.8239 51.7888 22.5798 51.7864 23.3204 51.6884L23.1892 50.697C22.5342 50.7837 21.8662 50.7858 21.2023 50.6986L21.0722 51.6901ZM25.4913 51.1067C26.1817 50.8213 26.8375 50.4454 27.4392 49.9841L26.8307 49.1905C26.2994 49.5979 25.7198 49.9301 25.1092 50.1825L25.4913 51.1067ZM29.0283 48.3933C29.2539 48.0986 29.4629 47.786 29.6533 47.4563L28.7873 46.9563C28.6186 47.2484 28.4336 47.525 28.2342 47.7855L29.0283 48.3933ZM29.6533 47.4563C29.7065 47.3642 29.7577 47.2715 29.8071 47.1783L28.9235 46.7101C28.8798 46.7926 28.8344 46.8747 28.7873 46.9563L29.6533 47.4563ZM30.084 46.6062C30.1268 46.5088 30.1677 46.411 30.2066 46.3127L29.2768 45.9445C29.2425 46.0313 29.2064 46.1178 29.1685 46.2039L30.084 46.6062ZM29.2792 46.3185C29.4576 46.7533 29.672 47.1745 29.9208 47.5772L30.7715 47.0514C30.5516 46.6956 30.3621 46.3233 30.2043 45.9387L29.2792 46.3185ZM31.7759 49.6973C32.1352 49.9918 32.5229 50.2609 32.9378 50.5004L33.4378 49.6344C33.0702 49.4221 32.7272 49.1841 32.4099 48.9239L31.7759 49.6973ZM32.9378 50.5004C33.2675 50.6907 33.6048 50.8569 33.9476 50.9994L34.3313 50.076C34.0284 49.9501 33.7299 49.803 33.4378 49.6344L32.9378 50.5004ZM36.1192 51.5825C36.8708 51.6811 37.6268 51.6788 38.3674 51.5807L38.2362 50.5894C37.5812 50.6761 36.9131 50.6781 36.2493 50.591L36.1192 51.5825ZM40.5382 50.999C41.2286 50.7136 41.8845 50.3377 42.4861 49.8765L41.8777 49.0829C41.3463 49.4902 40.7668 49.8225 40.1562 50.0749L40.5382 50.999ZM44.0752 48.2857C44.3009 47.9909 44.5099 47.6783 44.7003 47.3486L43.8342 46.8486C43.6656 47.1408 43.4806 47.4173 43.2812 47.6779L44.0752 48.2857ZM44.7003 47.3486C44.902 46.9991 45.0766 46.6411 45.2246 46.2771L44.2983 45.9005C44.1675 46.2222 44.013 46.539 43.8342 46.8486L44.7003 47.3486ZM45.8062 43.9674C45.8919 43.1692 45.8644 42.3682 45.7302 41.5876L44.7446 41.7572C44.8634 42.4476 44.8876 43.1556 44.8119 43.8606L45.8062 43.9674ZM45.0079 39.3194C44.8366 38.9615 44.6402 38.6145 44.4194 38.2812L43.5857 38.8335C43.7808 39.1279 43.9544 39.4347 44.1059 39.7511L45.0079 39.3194ZM43.9718 39.0564C44.3708 39.081 44.7696 39.0775 45.1652 39.0469L45.088 38.0499C44.7382 38.077 44.3858 38.08 44.0333 38.0583L43.9718 39.0564ZM47.4905 38.5382C48.2336 38.2643 48.941 37.8875 49.5894 37.4142L48.9998 36.6065C48.4271 37.0246 47.8018 37.3577 47.1446 37.6L47.4905 38.5382ZM51.2988 35.7557C51.54 35.4456 51.7628 35.1154 51.9645 34.7659L51.0985 34.2659C50.9197 34.5756 50.7226 34.8677 50.5094 35.1418L51.2988 35.7557ZM51.9645 34.7659C52.1549 34.4362 52.3211 34.0989 52.4635 33.7561L51.5401 33.3723C51.4142 33.6753 51.2672 33.9737 51.0985 34.2659L51.9645 34.7659ZM53.0466 31.5845C53.1453 30.8328 53.1429 30.0769 53.0448 29.3363L52.0535 29.4675C52.1402 30.1225 52.1422 30.7905 52.0551 31.4544L53.0466 31.5845ZM52.4632 27.1654C52.1778 26.475 51.8019 25.8192 51.3406 25.2175L50.547 25.826C50.9544 26.3573 51.2866 26.9369 51.539 27.5475L52.4632 27.1654ZM49.7498 23.6284C49.455 23.4028 49.1425 23.1938 48.8128 23.0034L48.3128 23.8694C48.6049 24.0381 48.8815 24.2231 49.142 24.4225L49.7498 23.6284ZM48.8128 23.0034C48.4001 22.7651 47.9755 22.5648 47.5432 22.4014L47.1896 23.3368C47.5715 23.4811 47.9471 23.6583 48.3128 23.8694L48.8128 23.0034ZM44.7948 21.853C44.3241 21.8377 43.8546 21.8611 43.391 21.922L43.5214 22.9135C43.9313 22.8596 44.3464 22.8389 44.7623 22.8525L44.7948 21.853Z" fill="#0A0A0A" mask="url(#path-4-inside-2_277_2383)"/>
<circle cx="29.6281" cy="30.421" r="6.80282" transform="rotate(30 29.6281 30.421)" stroke="#0A0A0A" stroke-width="0.5" stroke-dasharray="1 1"/>
<defs>
<linearGradient id="paint0_linear_277_2383" x1="29.0097" y1="46.4155" x2="29.0097" y2="74.8452" gradientUnits="userSpaceOnUse">
<stop stop-color="#FFEE03"/>
<stop offset="1" stop-color="#C5F987"/>
</linearGradient>
<linearGradient id="paint1_linear_277_2383" x1="15.4243" y1="55.8919" x2="18.4311" y2="70.8494" gradientUnits="userSpaceOnUse">
<stop stop-color="#FFEE03"/>
<stop offset="1" stop-color="#C5F987"/>
</linearGradient>
</defs>
</svg>
