<svg width="215" height="15" viewBox="0 0 215 15" fill="none" xmlns="http://www.w3.org/2000/svg">
<path fill-rule="evenodd" clip-rule="evenodd" d="M54.7786 5.67692C54.7389 5.74556 54.6954 5.81067 54.6486 5.87215C55.036 5.82144 55.4426 5.89288 55.8071 6.10286C56.6875 6.61002 56.9892 7.73324 56.4809 8.61166C56.1197 9.2357 55.447 9.5683 54.772 9.52677C55.1457 10.0893 55.1934 10.837 54.8323 11.4611C54.324 12.3396 53.1982 12.6405 52.3178 12.1334C51.9511 11.9222 51.6849 11.6041 51.5357 11.2414C51.5027 11.3244 51.4634 11.4059 51.4173 11.4855C50.909 12.3639 49.7832 12.6649 48.9028 12.1577C48.0224 11.6506 47.7208 10.5273 48.2291 9.64893C48.2705 9.57725 48.3161 9.50941 48.3654 9.44554C47.9893 9.48702 47.5971 9.41356 47.2443 9.21032C46.3638 8.70317 46.0622 7.57994 46.5705 6.70153C46.9316 6.07754 47.6042 5.74494 48.2792 5.7864C47.9058 5.22395 47.8582 4.47648 48.2192 3.85253C48.7275 2.97412 49.8533 2.67315 50.7337 3.18031C51.0848 3.38255 51.3439 3.68277 51.4962 4.02637C51.5238 3.96338 51.5551 3.90128 51.5904 3.84036C52.0987 2.96194 53.2245 2.66097 54.1049 3.16813C54.9853 3.67528 55.287 4.7985 54.7786 5.67692Z" fill="url(#paint0_linear_269_254)"/>
<path fill-rule="evenodd" clip-rule="evenodd" d="M9.99291 5.67692C9.95319 5.74556 9.9097 5.81067 9.86285 5.87215C10.2503 5.82144 10.6568 5.89288 11.0214 6.10286C11.9018 6.61002 12.2034 7.73324 11.6951 8.61166C11.334 9.2357 10.6613 9.5683 9.98625 9.52677C10.36 10.0893 10.4077 10.837 10.0465 11.4611C9.53822 12.3396 8.41245 12.6405 7.53203 12.1334C7.16539 11.9222 6.89912 11.6041 6.74992 11.2414C6.71699 11.3243 6.6776 11.4059 6.63155 11.4855C6.12324 12.3639 4.99747 12.6649 4.11706 12.1577C3.23664 11.6506 2.93499 10.5273 3.4433 9.64893C3.48478 9.57725 3.53037 9.50941 3.57961 9.44555C3.20352 9.48701 2.81132 9.41355 2.45852 9.21032C1.57811 8.70317 1.27645 7.57994 1.78476 6.70153C2.14583 6.07755 2.81847 5.74495 3.49342 5.7864C3.12002 5.22394 3.07242 4.47648 3.43347 3.85253C3.94178 2.97412 5.06756 2.67315 5.94797 3.18031C6.29908 3.38256 6.55814 3.68279 6.71049 4.02641C6.73803 3.9634 6.7694 3.90129 6.80466 3.84036C7.31296 2.96194 8.43874 2.66097 9.31915 3.16813C10.1996 3.67528 10.5012 4.7985 9.99291 5.67692Z" fill="url(#paint1_linear_269_254)"/>
<path fill-rule="evenodd" clip-rule="evenodd" d="M121.957 5.67695C121.918 5.74558 121.874 5.8107 121.827 5.87217C122.215 5.82146 122.621 5.89291 122.986 6.10289C123.866 6.61004 124.168 7.73327 123.66 8.61168C123.298 9.23573 122.626 9.56834 121.951 9.5268C122.324 10.0893 122.372 10.837 122.011 11.4612C121.503 12.3396 120.377 12.6405 119.496 12.1334C119.13 11.9222 118.864 11.6042 118.714 11.2415C118.681 11.3244 118.642 11.406 118.596 11.4855C118.088 12.3639 116.962 12.6649 116.082 12.1578C115.201 11.6506 114.899 10.5274 115.408 9.64896C115.449 9.57727 115.495 9.50943 115.544 9.44556C115.168 9.48705 114.776 9.41359 114.423 9.21035C113.543 8.70319 113.241 7.57997 113.749 6.70155C114.11 6.07755 114.783 5.74494 115.458 5.78643C115.085 5.22398 115.037 4.47651 115.398 3.85256C115.906 2.97415 117.032 2.67318 117.912 3.18033C118.264 3.38258 118.523 3.6828 118.675 4.0264C118.703 3.96341 118.734 3.90131 118.769 3.84038C119.277 2.96197 120.403 2.661 121.284 3.16815C122.164 3.67531 122.466 4.79853 121.957 5.67695Z" fill="url(#paint2_linear_269_254)"/>
<path fill-rule="evenodd" clip-rule="evenodd" d="M189.136 5.67695C189.096 5.74558 189.053 5.8107 189.006 5.87217C189.393 5.82146 189.8 5.89291 190.164 6.10289C191.045 6.61004 191.347 7.73327 190.838 8.61168C190.477 9.23573 189.804 9.56834 189.129 9.5268C189.503 10.0893 189.551 10.837 189.19 11.4612C188.681 12.3396 187.556 12.6405 186.675 12.1334C186.308 11.9222 186.042 11.6042 185.893 11.2415C185.86 11.3244 185.821 11.406 185.775 11.4855C185.266 12.3639 184.141 12.6649 183.26 12.1578C182.38 11.6506 182.078 10.5274 182.586 9.64896C182.628 9.57727 182.674 9.50943 182.723 9.44556C182.347 9.48705 181.954 9.41359 181.602 9.21035C180.721 8.70319 180.42 7.57997 180.928 6.70155C181.289 6.07755 181.962 5.74494 182.637 5.78643C182.263 5.22398 182.216 4.47651 182.577 3.85256C183.085 2.97415 184.211 2.67318 185.091 3.18033C185.442 3.38258 185.701 3.6828 185.854 4.0264C185.881 3.96341 185.913 3.90131 185.948 3.84038C186.456 2.96197 187.582 2.661 188.462 3.16815C189.343 3.67531 189.644 4.79853 189.136 5.67695Z" fill="url(#paint3_linear_269_254)"/>
<path fill-rule="evenodd" clip-rule="evenodd" d="M211.529 5.67695C211.489 5.74558 211.446 5.8107 211.399 5.87217C211.786 5.82146 212.193 5.89291 212.557 6.10289C213.438 6.61004 213.739 7.73327 213.231 8.61168C212.87 9.23573 212.197 9.56834 211.522 9.5268C211.896 10.0893 211.944 10.837 211.583 11.4612C211.074 12.3396 209.948 12.6405 209.068 12.1334C208.701 11.9222 208.435 11.6042 208.286 11.2415C208.253 11.3244 208.214 11.406 208.168 11.4855C207.659 12.3639 206.534 12.6649 205.653 12.1578C204.773 11.6506 204.471 10.5274 204.979 9.64896C205.021 9.57727 205.066 9.50943 205.116 9.44556C204.74 9.48705 204.347 9.41359 203.995 9.21035C203.114 8.70319 202.812 7.57997 203.321 6.70155C203.682 6.07755 204.355 5.74494 205.03 5.78643C204.656 5.22398 204.609 4.47651 204.97 3.85256C205.478 2.97415 206.604 2.67318 207.484 3.18033C207.835 3.38258 208.094 3.6828 208.247 4.0264C208.274 3.96341 208.305 3.90131 208.341 3.84038C208.849 2.96197 209.975 2.661 210.855 3.16815C211.736 3.67531 212.037 4.79853 211.529 5.67695Z" fill="url(#paint4_linear_269_254)"/>
<path fill-rule="evenodd" clip-rule="evenodd" d="M77.1716 5.67693C77.1319 5.74557 77.0884 5.81068 77.0415 5.87216C77.4289 5.82145 77.8355 5.8929 78.2 6.10288C79.0804 6.61003 79.3821 7.73325 78.8738 8.61167C78.5127 9.23571 77.8399 9.56832 77.1649 9.52678C77.5386 10.0893 77.5864 10.837 77.2252 11.4612C76.7169 12.3396 75.5911 12.6405 74.7107 12.1334C74.3441 11.9222 74.0778 11.6041 73.9286 11.2414C73.8957 11.3244 73.8563 11.4059 73.8102 11.4855C73.3019 12.3639 72.1761 12.6649 71.2957 12.1577C70.4153 11.6506 70.1137 10.5274 70.622 9.64894C70.6635 9.57726 70.709 9.50942 70.7583 9.44556C70.3822 9.48703 69.99 9.41357 69.6372 9.21033C68.7567 8.70318 68.4551 7.57996 68.9634 6.70154C69.3245 6.07755 69.9971 5.74495 70.6721 5.78642C70.2987 5.22396 70.2511 4.47649 70.6121 3.85255C71.1205 2.97413 72.2462 2.67317 73.1266 3.18032C73.4777 3.38257 73.7368 3.68281 73.8892 4.02642C73.9167 3.96342 73.9481 3.9013 73.9833 3.84037C74.4916 2.96195 75.6174 2.66099 76.4978 3.16814C77.3782 3.67529 77.6799 4.79852 77.1716 5.67693Z" fill="url(#paint5_linear_269_254)"/>
<path fill-rule="evenodd" clip-rule="evenodd" d="M32.3858 5.67692C32.3461 5.74556 32.3026 5.81067 32.2557 5.87215C32.6431 5.82144 33.0497 5.89288 33.4142 6.10286C34.2947 6.61002 34.5963 7.73324 34.088 8.61166C33.7269 9.2357 33.0541 9.5683 32.3791 9.52677C32.7528 10.0893 32.8006 10.837 32.4394 11.4611C31.9311 12.3396 30.8053 12.6405 29.9249 12.1334C29.5583 11.9222 29.292 11.6041 29.1428 11.2414C29.1099 11.3243 29.0705 11.4059 29.0244 11.4855C28.5161 12.3639 27.3903 12.6649 26.5099 12.1577C25.6295 11.6506 25.3279 10.5273 25.8362 9.64893C25.8777 9.57725 25.9233 9.50941 25.9725 9.44555C25.5964 9.48701 25.2042 9.41355 24.8514 9.21032C23.971 8.70317 23.6693 7.57994 24.1776 6.70153C24.5387 6.07755 25.2114 5.74495 25.8863 5.7864C25.5129 5.22394 25.4653 4.47648 25.8264 3.85253C26.3347 2.97412 27.4604 2.67315 28.3409 3.18031C28.692 3.38256 28.951 3.68279 29.1034 4.02641C29.1309 3.9634 29.1623 3.90129 29.1975 3.84036C29.7058 2.96194 30.8316 2.66097 31.712 3.16813C32.5924 3.67528 32.8941 4.7985 32.3858 5.67692Z" fill="url(#paint6_linear_269_254)"/>
<path fill-rule="evenodd" clip-rule="evenodd" d="M144.35 5.67692C144.31 5.74556 144.267 5.81068 144.22 5.87216C144.608 5.82143 145.014 5.89287 145.379 6.10286C146.259 6.61002 146.561 7.73324 146.052 8.61166C145.691 9.23571 145.019 9.56832 144.344 9.52677C144.717 10.0893 144.765 10.837 144.404 11.4611C143.896 12.3396 142.77 12.6405 141.889 12.1334C141.523 11.9222 141.256 11.6041 141.107 11.2414C141.074 11.3243 141.035 11.4059 140.989 11.4855C140.481 12.3639 139.355 12.6649 138.474 12.1577C137.594 11.6506 137.292 10.5273 137.801 9.64893C137.842 9.57725 137.888 9.50941 137.937 9.44554C137.561 9.48702 137.169 9.41356 136.816 9.21032C135.935 8.70317 135.634 7.57994 136.142 6.70153C136.503 6.07754 137.176 5.74494 137.851 5.7864C137.477 5.22395 137.43 4.47648 137.791 3.85253C138.299 2.97412 139.425 2.67315 140.305 3.18031C140.656 3.38255 140.915 3.68277 141.068 4.02637C141.095 3.96338 141.127 3.90128 141.162 3.84036C141.67 2.96194 142.796 2.66097 143.676 3.16813C144.557 3.67528 144.859 4.7985 144.35 5.67692Z" fill="url(#paint7_linear_269_254)"/>
<path fill-rule="evenodd" clip-rule="evenodd" d="M99.5645 5.67692C99.5248 5.74556 99.4813 5.81067 99.4344 5.87215C99.8218 5.82144 100.228 5.89288 100.593 6.10286C101.473 6.61002 101.775 7.73324 101.267 8.61166C100.906 9.2357 100.233 9.5683 99.5578 9.52677C99.9315 10.0893 99.9793 10.837 99.6181 11.4611C99.1098 12.3396 97.984 12.6405 97.1036 12.1334C96.737 11.9222 96.4707 11.6041 96.3215 11.2414C96.2886 11.3243 96.2492 11.4059 96.2031 11.4855C95.6948 12.3639 94.569 12.6649 93.6886 12.1577C92.8082 11.6506 92.5066 10.5273 93.0149 9.64893C93.0563 9.57725 93.1019 9.50941 93.1512 9.44555C92.7751 9.48701 92.3829 9.41355 92.0301 9.21032C91.1497 8.70317 90.848 7.57994 91.3563 6.70153C91.7174 6.07755 92.39 5.74495 93.065 5.7864C92.6916 5.22394 92.644 4.47648 93.005 3.85253C93.5133 2.97412 94.6391 2.67315 95.5195 3.18031C95.8706 3.38256 96.1297 3.68279 96.2821 4.02641C96.3096 3.9634 96.341 3.90129 96.3762 3.84036C96.8845 2.96194 98.0103 2.66097 98.8907 3.16813C99.7711 3.67528 100.073 4.7985 99.5645 5.67692Z" fill="url(#paint8_linear_269_254)"/>
<path fill-rule="evenodd" clip-rule="evenodd" d="M166.743 5.67692C166.703 5.74556 166.66 5.81068 166.613 5.87216C167 5.82143 167.407 5.89287 167.772 6.10286C168.652 6.61002 168.954 7.73324 168.445 8.61166C168.084 9.23571 167.411 9.56832 166.736 9.52677C167.11 10.0893 167.158 10.837 166.797 11.4611C166.288 12.3396 165.163 12.6405 164.282 12.1334C163.916 11.9222 163.649 11.6042 163.5 11.2415C163.467 11.3244 163.428 11.4059 163.382 11.4855C162.874 12.3639 161.748 12.6649 160.867 12.1577C159.987 11.6506 159.685 10.5273 160.194 9.64893C160.235 9.57724 160.281 9.5094 160.33 9.44554C159.954 9.48702 159.562 9.41357 159.209 9.21032C158.328 8.70317 158.027 7.57994 158.535 6.70153C158.896 6.07754 159.569 5.74494 160.244 5.7864C159.87 5.22395 159.823 4.47648 160.184 3.85253C160.692 2.97412 161.818 2.67315 162.698 3.18031C163.049 3.38255 163.308 3.68277 163.461 4.02637C163.488 3.96338 163.52 3.90128 163.555 3.84036C164.063 2.96194 165.189 2.66097 166.069 3.16813C166.95 3.67528 167.251 4.7985 166.743 5.67692Z" fill="url(#paint9_linear_269_254)"/>
<defs>
<linearGradient id="paint0_linear_269_254" x1="54.1185" y1="3.17595" x2="48.9341" y2="12.176" gradientUnits="userSpaceOnUse">
<stop stop-color="#FFEE03"/>
<stop offset="1" stop-color="#C5F987"/>
</linearGradient>
<linearGradient id="paint1_linear_269_254" x1="9.33274" y1="3.17595" x2="4.14836" y2="12.176" gradientUnits="userSpaceOnUse">
<stop stop-color="#FFEE03"/>
<stop offset="1" stop-color="#C5F987"/>
</linearGradient>
<linearGradient id="paint2_linear_269_254" x1="121.297" y1="3.17595" x2="116.113" y2="12.176" gradientUnits="userSpaceOnUse">
<stop stop-color="#FFEE03"/>
<stop offset="1" stop-color="#C5F987"/>
</linearGradient>
<linearGradient id="paint3_linear_269_254" x1="188.476" y1="3.17595" x2="183.291" y2="12.176" gradientUnits="userSpaceOnUse">
<stop stop-color="#FFEE03"/>
<stop offset="1" stop-color="#C5F987"/>
</linearGradient>
<linearGradient id="paint4_linear_269_254" x1="210.869" y1="3.17595" x2="205.684" y2="12.176" gradientUnits="userSpaceOnUse">
<stop stop-color="#FFEE03"/>
<stop offset="1" stop-color="#C5F987"/>
</linearGradient>
<linearGradient id="paint5_linear_269_254" x1="76.5114" y1="3.17595" x2="71.327" y2="12.176" gradientUnits="userSpaceOnUse">
<stop stop-color="#FFEE03"/>
<stop offset="1" stop-color="#C5F987"/>
</linearGradient>
<linearGradient id="paint6_linear_269_254" x1="31.7256" y1="3.17595" x2="26.5412" y2="12.176" gradientUnits="userSpaceOnUse">
<stop stop-color="#FFEE03"/>
<stop offset="1" stop-color="#C5F987"/>
</linearGradient>
<linearGradient id="paint7_linear_269_254" x1="143.69" y1="3.17595" x2="138.506" y2="12.176" gradientUnits="userSpaceOnUse">
<stop stop-color="#FFEE03"/>
<stop offset="1" stop-color="#C5F987"/>
</linearGradient>
<linearGradient id="paint8_linear_269_254" x1="98.9043" y1="3.17595" x2="93.7199" y2="12.176" gradientUnits="userSpaceOnUse">
<stop stop-color="#FFEE03"/>
<stop offset="1" stop-color="#C5F987"/>
</linearGradient>
<linearGradient id="paint9_linear_269_254" x1="166.083" y1="3.17595" x2="160.899" y2="12.176" gradientUnits="userSpaceOnUse">
<stop stop-color="#FFEE03"/>
<stop offset="1" stop-color="#C5F987"/>
</linearGradient>
</defs>
</svg>
