<svg width="16" height="21" viewBox="0 0 16 21" fill="none" xmlns="http://www.w3.org/2000/svg">
<path fill-rule="evenodd" clip-rule="evenodd" d="M11.8252 5.78871C11.7782 5.87008 11.7268 5.94727 11.6714 6.02015C12.1298 5.96 12.6109 6.04474 13.0423 6.29379C14.0842 6.89531 14.4411 8.22752 13.8396 9.26938C13.4123 10.0095 12.6163 10.404 11.8175 10.3548C12.2595 11.0219 12.3158 11.9085 11.8885 12.6486C11.287 13.6904 9.9548 14.0474 8.91294 13.4459C8.47906 13.1954 8.16397 12.8181 7.98741 12.3879C7.94849 12.4862 7.90192 12.5828 7.84752 12.677C7.24601 13.7189 5.91379 14.0758 4.87193 13.4743C3.83007 12.8728 3.47311 11.5406 4.07462 10.4987C4.1235 10.4141 4.1772 10.3339 4.23517 10.2585C3.79029 10.3075 3.32637 10.2204 2.90904 9.97941C1.86719 9.3779 1.51022 8.04568 2.11174 7.00382C2.53904 6.26371 3.33508 5.86922 4.13382 5.91843C3.6919 5.25131 3.63554 4.36472 4.06282 3.62465C4.66434 2.58279 5.99656 2.22583 7.03842 2.82734C7.45398 3.06727 7.76058 3.42344 7.94085 3.83107C7.97344 3.75636 8.01055 3.68269 8.05227 3.61043C8.65379 2.56857 9.98601 2.21161 11.0279 2.81312C12.0697 3.41464 12.4267 4.74686 11.8252 5.78871Z" fill="black"/>
<circle cx="7.95662" cy="8.17048" r="1.89416" transform="rotate(30 7.95662 8.17048)" fill="#FFE1CD"/>
<rect x="7.27112" y="12.4658" width="1.03881" height="7.63528" rx="0.5" fill="black"/>
<path d="M7.27312 18.5602C6.98709 16.9393 5.27198 15.0175 1.81726 15.4775C2.11831 16.8102 3.75008 18.5602 7.27312 18.5602Z" fill="black"/>
<path d="M8.31074 17.5221C8.59677 15.9012 10.3119 13.9794 13.7666 14.4395C13.4655 15.7721 11.8338 17.5221 8.31074 17.5221Z" fill="black"/>
</svg>
