<svg width="330" height="440" viewBox="0 0 330 440" fill="none" xmlns="http://www.w3.org/2000/svg">
<rect x="0.5" y="0.5" width="36.4804" height="36.4804" fill="#4294F5" stroke="#C855FB"/>
<rect x="0.5" y="73.9082" width="36.4804" height="36.4804" fill="#4294F5" stroke="#C855FB"/>
<rect x="0.5" y="146.092" width="36.4804" height="36.4804" fill="#4294F5" stroke="#C855FB"/>
<rect x="0.5" y="219.5" width="36.4804" height="36.4804" fill="#4294F5" stroke="#C855FB"/>
<rect x="0.5" y="292.908" width="36.4804" height="36.4804" fill="#4294F5" stroke="#C855FB"/>
<rect x="0.5" y="366.315" width="36.4804" height="36.4804" fill="#4294F5" stroke="#C855FB"/>
<rect x="146.092" y="0.5" width="36.4804" height="36.4804" fill="#4294F5" stroke="#C855FB"/>
<rect x="146.092" y="73.9082" width="36.4804" height="36.4804" fill="#4294F5" stroke="#C855FB"/>
<rect x="146.092" y="146.092" width="36.4804" height="36.4804" fill="#4294F5" stroke="#C855FB"/>
<rect x="146.092" y="219.5" width="36.4804" height="36.4804" fill="#4294F5" stroke="#C855FB"/>
<rect x="146.092" y="292.908" width="36.4804" height="36.4804" fill="#4294F5" stroke="#C855FB"/>
<rect x="146.092" y="366.315" width="36.4804" height="36.4804" fill="#4294F5" stroke="#C855FB"/>
<rect x="109.388" y="37.2036" width="36.4804" height="36.4804" fill="#4294F5" stroke="#C855FB"/>
<rect x="109.388" y="109.388" width="36.4804" height="36.4804" fill="#4294F5" stroke="#C855FB"/>
<rect x="109.388" y="182.796" width="36.4804" height="36.4804" fill="#4294F5" stroke="#C855FB"/>
<rect x="109.388" y="256.204" width="36.4804" height="36.4804" fill="#4294F5" stroke="#C855FB"/>
<rect x="109.388" y="329.612" width="36.4804" height="36.4804" fill="#4294F5" stroke="#C855FB"/>
<rect x="109.388" y="403.019" width="36.4804" height="36.4804" fill="#4294F5" stroke="#C855FB"/>
<rect x="37.204" y="0.5" width="36.4804" height="36.4804" fill="#DC90FC" stroke="#C855FB"/>
<rect x="37.204" y="73.9082" width="36.4804" height="36.4804" fill="#DC90FC" stroke="#C855FB"/>
<rect x="37.204" y="146.092" width="36.4804" height="36.4804" fill="#DC90FC" stroke="#C855FB"/>
<rect x="37.204" y="219.5" width="36.4804" height="36.4804" fill="#DC90FC" stroke="#C855FB"/>
<rect x="37.204" y="292.908" width="36.4804" height="36.4804" fill="#DC90FC" stroke="#C855FB"/>
<rect x="37.204" y="366.315" width="36.4804" height="36.4804" fill="#DC90FC" stroke="#C855FB"/>
<rect x="0.5" y="37.2036" width="36.4804" height="36.4804" fill="#DC90FC" stroke="#C855FB"/>
<rect x="0.5" y="109.388" width="36.4804" height="36.4804" fill="#DC90FC" stroke="#C855FB"/>
<rect x="0.5" y="182.796" width="36.4804" height="36.4804" fill="#DC90FC" stroke="#C855FB"/>
<rect x="0.5" y="256.204" width="36.4804" height="36.4804" fill="#DC90FC" stroke="#C855FB"/>
<rect x="0.5" y="329.612" width="36.4804" height="36.4804" fill="#DC90FC" stroke="#C855FB"/>
<rect x="0.5" y="403.019" width="36.4804" height="36.4804" fill="#DC90FC" stroke="#C855FB"/>
<rect x="182.796" y="0.5" width="36.4804" height="36.4804" fill="#DC90FC" stroke="#C855FB"/>
<rect x="182.796" y="73.9082" width="36.4804" height="36.4804" fill="#DC90FC" stroke="#C855FB"/>
<rect x="182.796" y="146.092" width="36.4804" height="36.4804" fill="#DC90FC" stroke="#C855FB"/>
<rect x="182.796" y="219.5" width="36.4804" height="36.4804" fill="#DC90FC" stroke="#C855FB"/>
<rect x="182.796" y="292.908" width="36.4804" height="36.4804" fill="#DC90FC" stroke="#C855FB"/>
<rect x="182.796" y="366.315" width="36.4804" height="36.4804" fill="#DC90FC" stroke="#C855FB"/>
<rect x="146.092" y="37.2036" width="36.4804" height="36.4804" fill="#DC90FC" stroke="#C855FB"/>
<rect x="146.092" y="109.388" width="36.4804" height="36.4804" fill="#DC90FC" stroke="#C855FB"/>
<rect x="146.092" y="182.796" width="36.4804" height="36.4804" fill="#DC90FC" stroke="#C855FB"/>
<rect x="146.092" y="256.204" width="36.4804" height="36.4804" fill="#DC90FC" stroke="#C855FB"/>
<rect x="146.092" y="329.612" width="36.4804" height="36.4804" fill="#DC90FC" stroke="#C855FB"/>
<rect x="146.092" y="403.019" width="36.4804" height="36.4804" fill="#DC90FC" stroke="#C855FB"/>
<rect x="73.9078" y="0.5" width="36.4804" height="36.4804" fill="#4294F5" stroke="#C855FB"/>
<rect x="73.9078" y="73.9082" width="36.4804" height="36.4804" fill="#4294F5" stroke="#C855FB"/>
<rect x="73.9078" y="146.092" width="36.4804" height="36.4804" fill="#4294F5" stroke="#C855FB"/>
<rect x="73.9078" y="219.5" width="36.4804" height="36.4804" fill="#4294F5" stroke="#C855FB"/>
<rect x="73.9078" y="292.908" width="36.4804" height="36.4804" fill="#4294F5" stroke="#C855FB"/>
<rect x="73.9078" y="366.315" width="36.4804" height="36.4804" fill="#4294F5" stroke="#C855FB"/>
<rect x="37.204" y="37.2036" width="36.4804" height="36.4804" fill="#4294F5" stroke="#C855FB"/>
<rect x="37.204" y="109.388" width="36.4804" height="36.4804" fill="#4294F5" stroke="#C855FB"/>
<rect x="37.204" y="182.796" width="36.4804" height="36.4804" fill="#4294F5" stroke="#C855FB"/>
<rect x="37.204" y="256.204" width="36.4804" height="36.4804" fill="#4294F5" stroke="#C855FB"/>
<rect x="37.204" y="329.612" width="36.4804" height="36.4804" fill="#4294F5" stroke="#C855FB"/>
<rect x="37.204" y="403.019" width="36.4804" height="36.4804" fill="#4294F5" stroke="#C855FB"/>
<rect x="219.5" y="0.5" width="36.4804" height="36.4804" fill="#4294F5" stroke="#C855FB"/>
<rect x="219.5" y="73.9082" width="36.4804" height="36.4804" fill="#4294F5" stroke="#C855FB"/>
<rect x="219.5" y="146.092" width="36.4804" height="36.4804" fill="#4294F5" stroke="#C855FB"/>
<rect x="219.5" y="219.5" width="36.4804" height="36.4804" fill="#4294F5" stroke="#C855FB"/>
<rect x="219.5" y="292.908" width="36.4804" height="36.4804" fill="#4294F5" stroke="#C855FB"/>
<rect x="219.5" y="366.315" width="36.4804" height="36.4804" fill="#4294F5" stroke="#C855FB"/>
<rect x="182.796" y="37.2036" width="36.4804" height="36.4804" fill="#4294F5" stroke="#C855FB"/>
<rect x="182.796" y="109.388" width="36.4804" height="36.4804" fill="#4294F5" stroke="#C855FB"/>
<rect x="182.796" y="182.796" width="36.4804" height="36.4804" fill="#4294F5" stroke="#C855FB"/>
<rect x="182.796" y="256.204" width="36.4804" height="36.4804" fill="#4294F5" stroke="#C855FB"/>
<rect x="182.796" y="329.612" width="36.4804" height="36.4804" fill="#4294F5" stroke="#C855FB"/>
<rect x="182.796" y="403.019" width="36.4804" height="36.4804" fill="#4294F5" stroke="#C855FB"/>
<rect x="110.612" y="0.5" width="35.257" height="36.4804" fill="#DC90FC" stroke="#C855FB"/>
<rect x="110.612" y="73.9082" width="35.257" height="36.4804" fill="#DC90FC" stroke="#C855FB"/>
<rect x="110.612" y="146.092" width="35.257" height="36.4804" fill="#DC90FC" stroke="#C855FB"/>
<rect x="110.612" y="219.5" width="35.257" height="36.4804" fill="#DC90FC" stroke="#C855FB"/>
<rect x="110.612" y="292.908" width="35.257" height="36.4804" fill="#DC90FC" stroke="#C855FB"/>
<rect x="110.612" y="366.315" width="35.257" height="36.4804" fill="#DC90FC" stroke="#C855FB"/>
<rect x="73.9078" y="37.2036" width="36.4804" height="36.4804" fill="#DC90FC" stroke="#C855FB"/>
<rect x="73.9078" y="109.388" width="36.4804" height="36.4804" fill="#DC90FC" stroke="#C855FB"/>
<rect x="73.9078" y="182.796" width="36.4804" height="36.4804" fill="#DC90FC" stroke="#C855FB"/>
<rect x="73.9078" y="256.204" width="36.4804" height="36.4804" fill="#DC90FC" stroke="#C855FB"/>
<rect x="73.9078" y="329.612" width="36.4804" height="36.4804" fill="#DC90FC" stroke="#C855FB"/>
<rect x="73.9078" y="403.019" width="36.4804" height="36.4804" fill="#DC90FC" stroke="#C855FB"/>
<rect x="256.204" y="0.5" width="36.4804" height="36.4804" fill="#DC90FC" stroke="#C855FB"/>
<rect x="256.204" y="73.9082" width="36.4804" height="36.4804" fill="#DC90FC" stroke="#C855FB"/>
<rect x="256.204" y="146.092" width="36.4804" height="36.4804" fill="#DC90FC" stroke="#C855FB"/>
<rect x="256.204" y="219.5" width="36.4804" height="36.4804" fill="#DC90FC" stroke="#C855FB"/>
<rect x="256.204" y="292.908" width="36.4804" height="36.4804" fill="#DC90FC" stroke="#C855FB"/>
<rect x="256.204" y="366.315" width="36.4804" height="36.4804" fill="#DC90FC" stroke="#C855FB"/>
<rect x="292.908" y="37.2036" width="36.4804" height="36.4804" fill="#DC90FC" stroke="#C855FB"/>
<rect x="292.908" y="109.388" width="36.4804" height="36.4804" fill="#DC90FC" stroke="#C855FB"/>
<rect x="292.908" y="182.796" width="36.4804" height="36.4804" fill="#DC90FC" stroke="#C855FB"/>
<rect x="292.908" y="256.204" width="36.4804" height="36.4804" fill="#DC90FC" stroke="#C855FB"/>
<rect x="292.908" y="329.612" width="36.4804" height="36.4804" fill="#DC90FC" stroke="#C855FB"/>
<rect x="292.908" y="403.019" width="36.4804" height="36.4804" fill="#DC90FC" stroke="#C855FB"/>
<rect x="219.5" y="37.2036" width="36.4804" height="36.4804" fill="#DC90FC" stroke="#C855FB"/>
<rect x="219.5" y="109.388" width="36.4804" height="36.4804" fill="#DC90FC" stroke="#C855FB"/>
<rect x="219.5" y="182.796" width="36.4804" height="36.4804" fill="#DC90FC" stroke="#C855FB"/>
<rect x="219.5" y="256.204" width="36.4804" height="36.4804" fill="#DC90FC" stroke="#C855FB"/>
<rect x="219.5" y="329.612" width="36.4804" height="36.4804" fill="#DC90FC" stroke="#C855FB"/>
<rect x="219.5" y="403.019" width="36.4804" height="36.4804" fill="#DC90FC" stroke="#C855FB"/>
<rect x="292.908" y="0.5" width="36.4804" height="36.4804" fill="#4294F5" stroke="#C855FB"/>
<rect x="292.908" y="73.9082" width="36.4804" height="36.4804" fill="#4294F5" stroke="#C855FB"/>
<rect x="292.908" y="146.092" width="36.4804" height="36.4804" fill="#4294F5" stroke="#C855FB"/>
<rect x="292.908" y="219.5" width="36.4804" height="36.4804" fill="#4294F5" stroke="#C855FB"/>
<rect x="292.908" y="292.908" width="36.4804" height="36.4804" fill="#4294F5" stroke="#C855FB"/>
<rect x="292.908" y="366.315" width="36.4804" height="36.4804" fill="#4294F5" stroke="#C855FB"/>
<rect x="256.204" y="37.2036" width="36.4804" height="36.4804" fill="#4294F5" stroke="#C855FB"/>
<rect x="256.204" y="109.388" width="36.4804" height="36.4804" fill="#4294F5" stroke="#C855FB"/>
<rect x="256.204" y="182.796" width="36.4804" height="36.4804" fill="#4294F5" stroke="#C855FB"/>
<rect x="256.204" y="256.204" width="36.4804" height="36.4804" fill="#4294F5" stroke="#C855FB"/>
<rect x="256.204" y="329.612" width="36.4804" height="36.4804" fill="#4294F5" stroke="#C855FB"/>
<rect x="256.204" y="403.019" width="36.4804" height="36.4804" fill="#4294F5" stroke="#C855FB"/>
</svg>
