<svg width="16" height="18" viewBox="0 0 16 18" fill="none" xmlns="http://www.w3.org/2000/svg">
<path fill-rule="evenodd" clip-rule="evenodd" d="M1.63352 1.48349C2.40745 0.775893 3.58695 0.854114 4.26801 1.6582L8 6.06433L11.732 1.6582C12.413 0.854114 13.5926 0.775893 14.3665 1.48349C15.1404 2.19108 15.2157 3.41654 14.5346 4.22063L10.4865 9L14.5346 13.7794C15.2157 14.5835 15.1404 15.8089 14.3665 16.5165C13.5926 17.2241 12.413 17.1459 11.732 16.3418L8 11.9357L4.26801 16.3418C3.58695 17.1459 2.40745 17.2241 1.63352 16.5165C0.859584 15.8089 0.784297 14.5835 1.46536 13.7794L5.51348 9L1.46536 4.22063C0.784297 3.41654 0.859584 2.19108 1.63352 1.48349Z" fill="#7A7A7A" stroke="black" stroke-linecap="round"/>
</svg>
